<svg xmlns="http://www.w3.org/2000/svg" xmlns:xlink="http://www.w3.org/1999/xlink" contentStyleType="text/css" data-diagram-type="CLASS" height="440px" preserveAspectRatio="none" style="width:476px;height:440px;background:#FFFFFF;" version="1.1" viewBox="0 0 476 440" width="476px" zoomAndPan="magnify"><title>UC22 - S&#417; &#273;&#7891; l&#7899;p (G&#7917;i chat)</title><defs/><g><g class="title" data-source-line="1"><text fill="#000000" font-family="sans-serif" font-size="14" font-weight="bold" lengthAdjust="spacing" textLength="185.6094" x="138.2759" y="24.5332">UC22 - S&#417; &#273;&#7891; l&#7899;p (G&#7917;i chat)</text></g><!--class ChatController--><g class="entity" data-entity="ChatController" data-source-line="2" data-uid="ent0002" id="entity_ChatController"><rect fill="#F1F1F1" height="83.2188" rx="2.5" ry="2.5" style="stroke:#181818;stroke-width:0.5;" width="160.6201" x="7" y="171.6094"/><ellipse cx="39.2613" cy="187.6094" fill="#ADD1B2" rx="11" ry="11" style="stroke:#181818;stroke-width:1;"/><path d="M42.0269,183.4844 Q42.1832,183.2656 42.3707,183.1563 Q42.5582,183.0469 42.7769,183.0469 Q43.1519,183.0469 43.3863,183.3125 Q43.6207,183.5625 43.6207,184.1719 L43.6207,185.625 Q43.6207,186.2344 43.3863,186.5 Q43.1519,186.7656 42.7769,186.7656 Q42.4332,186.7656 42.23,186.5625 Q42.0269,186.375 41.9175,185.8594 Q41.8707,185.5 41.6832,185.3125 Q41.355,184.9375 40.7457,184.7188 Q40.1363,184.5 39.5113,184.5 Q38.7457,184.5 38.105,184.8281 Q37.48,185.1563 36.98,185.9063 Q36.4957,186.6563 36.4957,187.6875 L36.4957,188.7813 Q36.4957,190.0156 37.3863,190.8438 Q38.2769,191.6563 39.8707,191.6563 Q40.8082,191.6563 41.4644,191.4063 Q41.855,191.25 42.2769,190.8125 Q42.5425,190.5469 42.6832,190.4688 Q42.8394,190.3906 43.0425,190.3906 Q43.3707,190.3906 43.6207,190.6563 Q43.8863,190.9063 43.8863,191.25 Q43.8863,191.5938 43.5425,192 Q43.0425,192.5781 42.2457,192.9063 Q41.1675,193.3594 39.8707,193.3594 Q38.355,193.3594 37.1519,192.7344 Q36.1675,192.2344 35.48,191.1719 Q34.7925,190.0938 34.7925,188.8125 L34.7925,187.6563 Q34.7925,186.3281 35.4019,185.1875 Q36.0269,184.0313 37.1207,183.4219 Q38.2144,182.7969 39.4488,182.7969 Q40.1832,182.7969 40.8238,182.9688 Q41.48,183.125 42.0269,183.4844 Z " fill="#000000"/><text fill="#000000" font-family="sans-serif" font-size="14" lengthAdjust="spacing" textLength="90.2617" x="57.0971" y="193.3379">ChatController</text><line style="stroke:#181818;stroke-width:0.5;" x1="8" x2="166.6201" y1="203.6094" y2="203.6094"/><line style="stroke:#181818;stroke-width:0.5;" x1="8" x2="166.6201" y1="211.6094" y2="211.6094"/><ellipse cx="18" cy="225.9141" fill="#84BE84" rx="3" ry="3" style="stroke:#038048;stroke-width:1;"/><text fill="#000000" font-family="sans-serif" font-size="14" lengthAdjust="spacing" textLength="80.1582" x="27" y="230.1426">onSend(text)</text><ellipse cx="18" cy="243.5234" fill="#84BE84" rx="3" ry="3" style="stroke:#038048;stroke-width:1;"/><text fill="#000000" font-family="sans-serif" font-size="14" lengthAdjust="spacing" textLength="134.6201" x="27" y="247.752">handleIncoming(msg)</text></g><!--class WebSocketClient--><g class="entity" data-entity="WebSocketClient" data-source-line="6" data-uid="ent0003" id="entity_WebSocketClient"><rect fill="#F1F1F1" height="65.6094" rx="2.5" ry="2.5" style="stroke:#181818;stroke-width:0.5;" width="148.9648" x="13" y="340.6094"/><ellipse cx="32.3137" cy="356.6094" fill="#ADD1B2" rx="11" ry="11" style="stroke:#181818;stroke-width:1;"/><path d="M35.0793,352.4844 Q35.2355,352.2656 35.423,352.1563 Q35.6105,352.0469 35.8293,352.0469 Q36.2043,352.0469 36.4387,352.3125 Q36.673,352.5625 36.673,353.1719 L36.673,354.625 Q36.673,355.2344 36.4387,355.5 Q36.2043,355.7656 35.8293,355.7656 Q35.4855,355.7656 35.2824,355.5625 Q35.0793,355.375 34.9699,354.8594 Q34.923,354.5 34.7355,354.3125 Q34.4074,353.9375 33.798,353.7188 Q33.1887,353.5 32.5637,353.5 Q31.798,353.5 31.1574,353.8281 Q30.5324,354.1563 30.0324,354.9063 Q29.548,355.6563 29.548,356.6875 L29.548,357.7813 Q29.548,359.0156 30.4387,359.8438 Q31.3293,360.6563 32.923,360.6563 Q33.8605,360.6563 34.5168,360.4063 Q34.9074,360.25 35.3293,359.8125 Q35.5949,359.5469 35.7355,359.4688 Q35.8918,359.3906 36.0949,359.3906 Q36.423,359.3906 36.673,359.6563 Q36.9387,359.9063 36.9387,360.25 Q36.9387,360.5938 36.5949,361 Q36.0949,361.5781 35.298,361.9063 Q34.2199,362.3594 32.923,362.3594 Q31.4074,362.3594 30.2043,361.7344 Q29.2199,361.2344 28.5324,360.1719 Q27.8449,359.0938 27.8449,357.8125 L27.8449,356.6563 Q27.8449,355.3281 28.4543,354.1875 Q29.0793,353.0313 30.173,352.4219 Q31.2668,351.7969 32.5012,351.7969 Q33.2355,351.7969 33.8762,351.9688 Q34.5324,352.125 35.0793,352.4844 Z " fill="#000000"/><text fill="#000000" font-family="sans-serif" font-size="14" lengthAdjust="spacing" textLength="107.3789" x="47.2723" y="362.3379">WebSocketClient</text><line style="stroke:#181818;stroke-width:0.5;" x1="14" x2="160.9648" y1="372.6094" y2="372.6094"/><line style="stroke:#181818;stroke-width:0.5;" x1="14" x2="160.9648" y1="380.6094" y2="380.6094"/><ellipse cx="24" cy="394.9141" fill="#84BE84" rx="3" ry="3" style="stroke:#038048;stroke-width:1;"/><text fill="#000000" font-family="sans-serif" font-size="14" lengthAdjust="spacing" textLength="122.9648" x="33" y="399.1426">send(type, payload)</text></g><!--class ChatMessage--><g class="entity" data-entity="ChatMessage" data-source-line="9" data-uid="ent0004" id="entity_ChatMessage"><rect fill="#F1F1F1" height="118.4375" rx="2.5" ry="2.5" style="stroke:#181818;stroke-width:0.5;" width="159.0342" x="227" y="314.6094"/><ellipse cx="260.2949" cy="330.6094" fill="#ADD1B2" rx="11" ry="11" style="stroke:#181818;stroke-width:1;"/><path d="M263.0605,326.4844 Q263.2167,326.2656 263.4042,326.1563 Q263.5917,326.0469 263.8105,326.0469 Q264.1855,326.0469 264.4199,326.3125 Q264.6542,326.5625 264.6542,327.1719 L264.6542,328.625 Q264.6542,329.2344 264.4199,329.5 Q264.1855,329.7656 263.8105,329.7656 Q263.4667,329.7656 263.2636,329.5625 Q263.0605,329.375 262.9511,328.8594 Q262.9042,328.5 262.7167,328.3125 Q262.3886,327.9375 261.7792,327.7188 Q261.1699,327.5 260.5449,327.5 Q259.7792,327.5 259.1386,327.8281 Q258.5136,328.1563 258.0136,328.9063 Q257.5292,329.6563 257.5292,330.6875 L257.5292,331.7813 Q257.5292,333.0156 258.4199,333.8438 Q259.3105,334.6563 260.9042,334.6563 Q261.8417,334.6563 262.498,334.4063 Q262.8886,334.25 263.3105,333.8125 Q263.5761,333.5469 263.7167,333.4688 Q263.873,333.3906 264.0761,333.3906 Q264.4042,333.3906 264.6542,333.6563 Q264.9199,333.9063 264.9199,334.25 Q264.9199,334.5938 264.5761,335 Q264.0761,335.5781 263.2792,335.9063 Q262.2011,336.3594 260.9042,336.3594 Q259.3886,336.3594 258.1855,335.7344 Q257.2011,335.2344 256.5136,334.1719 Q255.8261,333.0938 255.8261,331.8125 L255.8261,330.6563 Q255.8261,329.3281 256.4355,328.1875 Q257.0605,327.0313 258.1542,326.4219 Q259.248,325.7969 260.4824,325.7969 Q261.2167,325.7969 261.8574,325.9688 Q262.5136,326.125 263.0605,326.4844 Z " fill="#000000"/><text fill="#000000" font-family="sans-serif" font-size="14" lengthAdjust="spacing" textLength="86.3789" x="278.3604" y="336.3379">ChatMessage</text><line style="stroke:#181818;stroke-width:0.5;" x1="228" x2="385.0342" y1="346.6094" y2="346.6094"/><ellipse cx="238" cy="360.9141" fill="none" rx="3" ry="3" style="stroke:#038048;stroke-width:1;"/><text fill="#000000" font-family="sans-serif" font-size="14" lengthAdjust="spacing" textLength="112.834" x="247" y="365.1426">messageId: String</text><ellipse cx="238" cy="378.5234" fill="none" rx="3" ry="3" style="stroke:#038048;stroke-width:1;"/><text fill="#000000" font-family="sans-serif" font-size="14" lengthAdjust="spacing" textLength="98.834" x="247" y="382.752">senderId: String</text><ellipse cx="238" cy="396.1328" fill="none" rx="3" ry="3" style="stroke:#038048;stroke-width:1;"/><text fill="#000000" font-family="sans-serif" font-size="14" lengthAdjust="spacing" textLength="66.917" x="247" y="400.3613">text: String</text><ellipse cx="238" cy="413.7422" fill="none" rx="3" ry="3" style="stroke:#038048;stroke-width:1;"/><text fill="#000000" font-family="sans-serif" font-size="14" lengthAdjust="spacing" textLength="133.0342" x="247" y="417.9707">timestamp: DateTime</text><line style="stroke:#181818;stroke-width:0.5;" x1="228" x2="385.0342" y1="425.0469" y2="425.0469"/></g><!--class SignalingEndpoint--><g class="entity" data-entity="SignalingEndpoint" data-source-line="15" data-uid="ent0005" id="entity_SignalingEndpoint"><rect fill="#F1F1F1" height="65.6094" rx="2.5" ry="2.5" style="stroke:#181818;stroke-width:0.5;" width="189.3994" x="242" y="45.6094"/><ellipse cx="277.0391" cy="61.6094" fill="#ADD1B2" rx="11" ry="11" style="stroke:#181818;stroke-width:1;"/><path d="M279.8047,57.4844 Q279.9609,57.2656 280.1484,57.1563 Q280.3359,57.0469 280.5547,57.0469 Q280.9297,57.0469 281.1641,57.3125 Q281.3984,57.5625 281.3984,58.1719 L281.3984,59.625 Q281.3984,60.2344 281.1641,60.5 Q280.9297,60.7656 280.5547,60.7656 Q280.2109,60.7656 280.0078,60.5625 Q279.8047,60.375 279.6953,59.8594 Q279.6484,59.5 279.4609,59.3125 Q279.1328,58.9375 278.5234,58.7188 Q277.9141,58.5 277.2891,58.5 Q276.5234,58.5 275.8828,58.8281 Q275.2578,59.1563 274.7578,59.9063 Q274.2734,60.6563 274.2734,61.6875 L274.2734,62.7813 Q274.2734,64.0156 275.1641,64.8438 Q276.0547,65.6563 277.6484,65.6563 Q278.5859,65.6563 279.2422,65.4063 Q279.6328,65.25 280.0547,64.8125 Q280.3203,64.5469 280.4609,64.4688 Q280.6172,64.3906 280.8203,64.3906 Q281.1484,64.3906 281.3984,64.6563 Q281.6641,64.9063 281.6641,65.25 Q281.6641,65.5938 281.3203,66 Q280.8203,66.5781 280.0234,66.9063 Q278.9453,67.3594 277.6484,67.3594 Q276.1328,67.3594 274.9297,66.7344 Q273.9453,66.2344 273.2578,65.1719 Q272.5703,64.0938 272.5703,62.8125 L272.5703,61.6563 Q272.5703,60.3281 273.1797,59.1875 Q273.8047,58.0313 274.8984,57.4219 Q275.9922,56.7969 277.2266,56.7969 Q277.9609,56.7969 278.6016,56.9688 Q279.2578,57.125 279.8047,57.4844 Z " fill="#000000"/><text fill="#000000" font-family="sans-serif" font-size="14" lengthAdjust="spacing" textLength="112.8682" x="295.4922" y="67.3379">SignalingEndpoint</text><line style="stroke:#181818;stroke-width:0.5;" x1="243" x2="430.3994" y1="77.6094" y2="77.6094"/><line style="stroke:#181818;stroke-width:0.5;" x1="243" x2="430.3994" y1="85.6094" y2="85.6094"/><ellipse cx="253" cy="99.9141" fill="#84BE84" rx="3" ry="3" style="stroke:#038048;stroke-width:1;"/><text fill="#000000" font-family="sans-serif" font-size="14" lengthAdjust="spacing" textLength="163.3994" x="262" y="104.1426">onMessage(session, msg)</text></g><!--class MessageService--><g class="entity" data-entity="MessageService" data-source-line="18" data-uid="ent0006" id="entity_MessageService"><rect fill="#F1F1F1" height="65.6094" rx="2.5" ry="2.5" style="stroke:#181818;stroke-width:0.5;" width="265.6611" x="203.5" y="180.1094"/><ellipse cx="280.3359" cy="196.1094" fill="#ADD1B2" rx="11" ry="11" style="stroke:#181818;stroke-width:1;"/><path d="M283.1016,191.9844 Q283.2578,191.7656 283.4453,191.6563 Q283.6328,191.5469 283.8516,191.5469 Q284.2266,191.5469 284.4609,191.8125 Q284.6953,192.0625 284.6953,192.6719 L284.6953,194.125 Q284.6953,194.7344 284.4609,195 Q284.2266,195.2656 283.8516,195.2656 Q283.5078,195.2656 283.3047,195.0625 Q283.1016,194.875 282.9922,194.3594 Q282.9453,194 282.7578,193.8125 Q282.4297,193.4375 281.8203,193.2188 Q281.2109,193 280.5859,193 Q279.8203,193 279.1797,193.3281 Q278.5547,193.6563 278.0547,194.4063 Q277.5703,195.1563 277.5703,196.1875 L277.5703,197.2813 Q277.5703,198.5156 278.4609,199.3438 Q279.3516,200.1563 280.9453,200.1563 Q281.8828,200.1563 282.5391,199.9063 Q282.9297,199.75 283.3516,199.3125 Q283.6172,199.0469 283.7578,198.9688 Q283.9141,198.8906 284.1172,198.8906 Q284.4453,198.8906 284.6953,199.1563 Q284.9609,199.4063 284.9609,199.75 Q284.9609,200.0938 284.6172,200.5 Q284.1172,201.0781 283.3203,201.4063 Q282.2422,201.8594 280.9453,201.8594 Q279.4297,201.8594 278.2266,201.2344 Q277.2422,200.7344 276.5547,199.6719 Q275.8672,198.5938 275.8672,197.3125 L275.8672,196.1563 Q275.8672,194.8281 276.4766,193.6875 Q277.1016,192.5313 278.1953,191.9219 Q279.2891,191.2969 280.5234,191.2969 Q281.2578,191.2969 281.8984,191.4688 Q282.5547,191.625 283.1016,191.9844 Z " fill="#000000"/><text fill="#000000" font-family="sans-serif" font-size="14" lengthAdjust="spacing" textLength="103.4893" x="300.8359" y="201.8379">MessageService</text><line style="stroke:#181818;stroke-width:0.5;" x1="204.5" x2="468.1611" y1="212.1094" y2="212.1094"/><line style="stroke:#181818;stroke-width:0.5;" x1="204.5" x2="468.1611" y1="220.1094" y2="220.1094"/><ellipse cx="214.5" cy="234.4141" fill="#84BE84" rx="3" ry="3" style="stroke:#038048;stroke-width:1;"/><text fill="#000000" font-family="sans-serif" font-size="14" lengthAdjust="spacing" textLength="239.6611" x="223.5" y="238.6426">save(roomId, senderId, text): Message</text></g><!--link ChatController to WebSocketClient--><g class="link" data-entity-1="ChatController" data-entity-2="WebSocketClient" data-source-line="21" data-uid="lnk7" id="link_ChatController_WebSocketClient"><path codeLine="21" d="M87.5,254.9294 C87.5,281.5294 87.5,309.7494 87.5,334.4194" fill="none" id="ChatController-to-WebSocketClient" style="stroke:#181818;stroke-width:1;"/><polygon fill="#181818" points="87.5,340.4194,91.5,331.4194,87.5,335.4194,83.5,331.4194,87.5,340.4194" style="stroke:#181818;stroke-width:1;"/></g><!--link ChatController to ChatMessage--><g class="link" data-entity-1="ChatController" data-entity-2="ChatMessage" data-source-line="22" data-uid="lnk8" id="link_ChatController_ChatMessage"><path codeLine="22" d="M143.61,254.7194 C168.96,273.0694 194.4991,291.5521 222.1391,311.5521" fill="none" id="ChatController-to-ChatMessage" style="stroke:#181818;stroke-width:1;"/><polygon fill="#181818" points="227,315.0694,222.0535,306.5528,222.9492,312.1383,217.3637,313.034,227,315.0694" style="stroke:#181818;stroke-width:1;"/></g><!--link SignalingEndpoint to MessageService--><g class="link" data-entity-1="SignalingEndpoint" data-entity-2="MessageService" data-source-line="23" data-uid="lnk9" id="link_SignalingEndpoint_MessageService"><path codeLine="23" d="M336.5,111.6794 C336.5,132.3594 336.5,153.1594 336.5,173.8694" fill="none" id="SignalingEndpoint-to-MessageService" style="stroke:#181818;stroke-width:1;"/><polygon fill="#181818" points="336.5,179.8694,340.5,170.8694,336.5,174.8694,332.5,170.8694,336.5,179.8694" style="stroke:#181818;stroke-width:1;"/></g><!--link MessageService to ChatMessage--><g class="link" data-entity-1="MessageService" data-entity-2="ChatMessage" data-source-line="24" data-uid="lnk10" id="link_MessageService_ChatMessage"><path codeLine="24" d="M330.43,246.1794 C326.73,265.7194 323.0045,285.3838 318.6545,308.3938" fill="none" id="MessageService-to-ChatMessage" style="stroke:#181818;stroke-width:1;"/><polygon fill="#181818" points="317.54,314.2894,323.1422,306.189,318.4688,309.3764,315.2814,304.703,317.54,314.2894" style="stroke:#181818;stroke-width:1;"/></g><!--SRC=[RP0nJiGm44Nxd6BAH2JDbYbe0a8fg0oYDl4eQ-7CMBQrOeKu1AAauW2S82tY7ha9pf8D94jbp_ZF_yyJT308jzLc0mM8htVuV1dwLp13_sOXlHhw3mtDLeOiQOpq7gfuhvY2OsFGmLC2S0PC0acb0H-ZRcni9Ic3DJNSQMhJphTPyZmvtE6zuEO1GsKqKfWi_C5WRp47A_U6fVgT63ElqNlPugJkVgfQbI22Yn6p1xfLSuHQDdIS3hAp9Lp8W3Und9E4RacQgBmaPLdFT4nJVkhZgPboMFnfUXNeThevGdgvmzGnTxNAPxRy09ILnv5eiLffKPolT_IVvCzIabFiKR64IbQCAuzl]--></g></svg>