<svg xmlns="http://www.w3.org/2000/svg" xmlns:xlink="http://www.w3.org/1999/xlink" contentStyleType="text/css" data-diagram-type="DESCRIPTION" height="459px" preserveAspectRatio="none" style="width:718px;height:459px;background:#FFFFFF;" version="1.1" viewBox="0 0 718 459" width="718px" zoomAndPan="magnify"><title>UC04 - G&#7917;i l&#7901;i m&#7901;i k&#7871;t b&#7841;n</title><defs/><g><g class="title" data-source-line="1"><text fill="#000000" font-family="sans-serif" font-size="14" font-weight="bold" lengthAdjust="spacing" textLength="177.8574" x="263.2935" y="24.5332">UC04 - G&#7917;i l&#7901;i m&#7901;i k&#7871;t b&#7841;n</text></g><!--cluster H? th?ng Study P2P--><g class="cluster" data-entity="H. th.ng Study P2P" data-source-line="12" data-uid="ent0004" id="cluster_H. th.ng Study P2P"><rect fill="none" height="190" rx="2.5" ry="2.5" style="stroke:#181818;stroke-width:1;" width="528" x="128" y="168.6094"/><text fill="#000000" font-family="sans-serif" font-size="14" font-weight="bold" lengthAdjust="spacing" textLength="133.7861" x="325.1069" y="185.1426">H&#7879; th&#7889;ng Study P2P</text></g><!--entity UC04--><g class="entity" data-entity="UC04" data-source-line="13" data-uid="ent0005" id="entity_UC04"><ellipse cx="223.0056" cy="230.857" fill="#EEF7FF" rx="79.0056" ry="25.2477" style="stroke:#2D6CDF;stroke-width:0.5;"/><text fill="#000000" font-family="sans-serif" font-size="14" lengthAdjust="spacing" textLength="35.793" x="205.1091" y="223.3443">UC04</text><text fill="#000000" font-family="sans-serif" font-size="14" lengthAdjust="spacing" textLength="120.3193" x="162.846" y="240.9537">G&#7917;i l&#7901;i m&#7901;i k&#7871;t b&#7841;n</text></g><!--entity UC05--><g class="entity" data-entity="UC05" data-source-line="14" data-uid="ent0006" id="entity_UC05"><ellipse cx="564.1123" cy="230.3767" fill="#EEF7FF" rx="76.1123" ry="25.2673" style="stroke:#2D6CDF;stroke-width:0.5;"/><text fill="#000000" font-family="sans-serif" font-size="14" lengthAdjust="spacing" textLength="35.793" x="546.2158" y="222.8962">UC05</text><text fill="#000000" font-family="sans-serif" font-size="14" lengthAdjust="spacing" textLength="115.6367" x="506.2939" y="240.5055">Ch&#7845;p nh&#7853;n l&#7901;i m&#7901;i</text></g><!--entity UC06--><g class="entity" data-entity="UC06" data-source-line="15" data-uid="ent0007" id="entity_UC06"><ellipse cx="564.1743" cy="316.5047" fill="#EEF7FF" rx="63.1743" ry="25.3953" style="stroke:#2D6CDF;stroke-width:0.5;"/><text fill="#000000" font-family="sans-serif" font-size="14" lengthAdjust="spacing" textLength="35.793" x="546.2778" y="309.2321">UC06</text><text fill="#000000" font-family="sans-serif" font-size="14" lengthAdjust="spacing" textLength="94.6299" x="516.8593" y="326.8415">T&#7915; ch&#7889;i l&#7901;i m&#7901;i</text></g><!--entity User--><g class="entity" data-entity="User" data-source-line="9" data-uid="ent0002" id="entity_User"><ellipse cx="43.2969" cy="207.6094" fill="#F1F1F1" rx="16" ry="16" style="stroke:#181818;stroke-width:0.5;"/><path d="M43.2969,227.6094 C47.2969,227.6094 50.2969,227.6094 54.2969,223.6094 C62.2969,223.6094 70.2969,231.6094 70.2969,239.6094 L70.2969,243.6094 C70.2969,247.6094 66.2969,251.6094 62.2969,251.6094 L24.2969,251.6094 C20.2969,251.6094 16.2969,247.6094 16.2969,243.6094 L16.2969,239.6094 C16.2969,231.6094 24.2969,223.6094 32.2969,223.6094 C36.2969,227.6094 39.2969,227.6094 43.2969,227.6094" fill="#F1F1F1" style="stroke:#181818;stroke-width:0.5;"/><text fill="#000000" font-family="sans-serif" font-size="14" lengthAdjust="spacing" textLength="74.5938" x="6" y="266.6426">Ng&#432;&#7901;i d&#249;ng</text></g><!--entity Invitee--><g class="entity" data-entity="Invitee" data-source-line="10" data-uid="ent0003" id="entity_Invitee"><ellipse cx="222.8638" cy="391.6094" fill="#F1F1F1" rx="16" ry="16" style="stroke:#181818;stroke-width:0.5;"/><path d="M222.8638,411.6094 C226.8638,411.6094 229.8638,411.6094 233.8638,407.6094 C241.8638,407.6094 249.8638,415.6094 249.8638,423.6094 L249.8638,427.6094 C249.8638,431.6094 245.8638,435.6094 241.8638,435.6094 L203.8638,435.6094 C199.8638,435.6094 195.8638,431.6094 195.8638,427.6094 L195.8638,423.6094 C195.8638,415.6094 203.8638,407.6094 211.8638,407.6094 C215.8638,411.6094 218.8638,411.6094 222.8638,411.6094" fill="#F1F1F1" style="stroke:#181818;stroke-width:0.5;"/><text fill="#000000" font-family="sans-serif" font-size="14" lengthAdjust="spacing" textLength="121.7275" x="162" y="450.6426">Ng&#432;&#7901;i nh&#7853;n l&#7901;i m&#7901;i</text></g><g class="entity" data-entity="GMN13" data-source-line="25" data-uid="ent0014" id="entity_GMN13"><path d="M417,44.6094 L417,152.7188 A0,0 0 0 0 417,152.7188 L420.16,152.7188 L273.66,211.2694 L428.16,152.7188 L711.4443,152.7188 A0,0 0 0 0 711.4443,152.7188 L711.4443,54.6094 L701.4443,44.6094 L417,44.6094 A0,0 0 0 0 417,44.6094" fill="#FEFFDD" style="stroke:#181818;stroke-width:0.5;"/><path d="M701.4443,44.6094 L701.4443,54.6094 L711.4443,54.6094 L701.4443,44.6094" fill="#FEFFDD" style="stroke:#181818;stroke-width:0.5;"/><text fill="#000000" font-family="sans-serif" font-size="13" lengthAdjust="spacing" textLength="84.5508" x="423" y="63.1045">Ti&#7873;n &#273;i&#7873;u ki&#7879;n:</text><text fill="#000000" font-family="sans-serif" font-size="13" lengthAdjust="spacing" textLength="219.0005" x="423" y="79.4561">- Hai b&#234;n ch&#432;a l&#224; b&#7841;n; kh&#244;ng b&#7883; block.</text><text fill="#000000" font-family="sans-serif" font-size="13" lengthAdjust="spacing" textLength="83.1099" x="423" y="95.8076">H&#7853;u &#273;i&#7873;u ki&#7879;n:</text><text fill="#000000" font-family="sans-serif" font-size="13" lengthAdjust="spacing" textLength="197.5518" x="423" y="112.1592">- T&#7841;o l&#7901;i m&#7901;i &#7903; tr&#7841;ng th&#225;i pending.</text><text fill="#000000" font-family="sans-serif" font-size="13" lengthAdjust="spacing" textLength="66.4917" x="423" y="128.5107">R&#224;ng bu&#7897;c:</text><text fill="#000000" font-family="sans-serif" font-size="13" lengthAdjust="spacing" textLength="273.4443" x="423" y="144.8623">- Kh&#244;ng t&#7841;o tr&#249;ng l&#7901;i m&#7901;i; th&#244;ng b&#225;o t&#7899;i Invitee.</text></g><!--link User to UC04--><g class="link" data-entity-1="User" data-entity-2="UC04" data-source-line="18" data-uid="lnk8" id="link_User_UC04"><path d="M81.28,230.6094 C99.45,230.6094 116.12,230.6094 137.92,230.6094" fill="none" id="User-to-UC04" style="stroke:#181818;stroke-width:1;"/><polygon fill="#181818" points="143.92,230.6094,134.92,226.6094,138.92,230.6094,134.92,234.6094,143.92,230.6094" style="stroke:#181818;stroke-width:1;"/></g><!--link Invitee to UC05--><g class="link" data-entity-1="Invitee" data-entity-2="UC05" data-source-line="19" data-uid="lnk9" id="link_Invitee_UC05"><path d="M279.46,374.9294 C287.05,369.4694 294.72,363.9094 302,358.6094 C353.37,321.1894 360.09,301.9094 417,273.6094 C442.79,260.7894 467.2871,252.6146 493.5771,245.7046" fill="none" id="Invitee-to-UC05" style="stroke:#181818;stroke-width:1;"/><polygon fill="#181818" points="499.38,244.1794,489.6588,242.5986,494.5442,245.4504,491.6925,250.3358,499.38,244.1794" style="stroke:#181818;stroke-width:1;"/></g><!--link Invitee to UC06--><g class="link" data-entity-1="Invitee" data-entity-2="UC06" data-source-line="20" data-uid="lnk10" id="link_Invitee_UC06"><path d="M284.08,403.6794 C315.06,397.5494 353.32,389.2094 387,379.6094 C432.41,366.6694 477.4636,350.2527 512.7236,336.6227" fill="none" id="Invitee-to-UC06" style="stroke:#181818;stroke-width:1;"/><polygon fill="#181818" points="518.32,334.4594,508.4831,333.9734,513.6563,336.2622,511.3676,341.4353,518.32,334.4594" style="stroke:#181818;stroke-width:1;"/></g><!--reverse link UC04 to UC05--><g class="link" data-entity-1="UC04" data-entity-2="UC05" data-source-line="21" data-uid="lnk11" id="link_UC04_UC05"><path d="M320.2,230.6094 C376.02,230.6094 432.68,230.6094 487.82,230.6094" fill="none" id="UC04-backto-UC05" style="stroke:#181818;stroke-width:1;"/><polygon fill="none" points="302.2,230.6094,320.2,236.6094,320.2,224.6094,302.2,230.6094" style="stroke:#181818;stroke-width:1;"/><text fill="#000000" font-family="sans-serif" font-size="13" lengthAdjust="spacing" textLength="53.4917" x="333" y="227.1045">&#171;extend&#187;</text></g><!--reverse link UC04 to UC06--><g class="link" data-entity-1="UC04" data-entity-2="UC06" data-source-line="22" data-uid="lnk12" id="link_UC04_UC06"><path d="M302.8373,250.6057 C367.0473,266.8957 449.32,287.7694 510.14,303.1994" fill="none" id="UC04-backto-UC06" style="stroke:#181818;stroke-width:1;"/><polygon fill="none" points="285.39,246.1794,301.3618,256.4215,304.3127,244.79,285.39,246.1794" style="stroke:#181818;stroke-width:1;"/><text fill="#000000" font-family="sans-serif" font-size="13" lengthAdjust="spacing" textLength="53.4917" x="333" y="255.1045">&#171;extend&#187;</text></g><!--SRC=[VLAnRXD14EttAqP7VHQAo24bbWkS62Ca516dSxE-svnNTvwrzkQ022YeKb2bH14YAMX0aLBGu2qe3kK_za_OtRCbsmIQNMdVl3TltYn9AWMSz1y-WXYUMdCZeRJciuHPE0kx-4KmiOjhPAKu9I05MkPJWangaP9KoAf2ufnhFWEUajB7TEOK-MjHgPbO0-jAfBmIy9O1FE5faMjLOzPNfTBmuF1my7Wmy8ZIcT3Brvs3f7ymOEyP2yeGlSZlReElhFc9UGIyWfDAwBzWdDh53QvF4cgVuIj9GZ3chNFCdSzeQCqvqDIQ2ypXcEhi38vsZg9WSsKvylcCyR_nj6PStHPlTunzv-Rh_5-cVCqM9ndZo9hla7fRyZv6uaFneqCSzzgso-5M3xlR3maBM-w-Y-E0mnvqk-8D2SnwlKqisSGOAXBBjQlJjjj8MlC1uVU5lsiet7MEUoo68PSmQRwXCtztow5ihjfyzg6ODZzSnXDhFiAaL6dHOKENI7sFoCWnr4RIrdm1qbueTzjghYNCdJc9UOUzRAwyR6tDfzIJdxTzA6YGzZzbNMhVyuEHnkFMNChLn-Wmfmb-MlO7]--></g></svg>