<svg xmlns="http://www.w3.org/2000/svg" xmlns:xlink="http://www.w3.org/1999/xlink" contentStyleType="text/css" data-diagram-type="DESCRIPTION" height="371px" preserveAspectRatio="none" style="width:808px;height:371px;background:#FFFFFF;" version="1.1" viewBox="0 0 808 371" width="808px" zoomAndPan="magnify"><title>UC24 - T&#7841;o task/nh&#7855;c nh&#7903;</title><defs/><g><g class="title" data-source-line="1"><text fill="#000000" font-family="sans-serif" font-size="14" font-weight="bold" lengthAdjust="spacing" textLength="172.5459" x="311.1753" y="24.5332">UC24 - T&#7841;o task/nh&#7855;c nh&#7903;</text></g><!--cluster H? th?ng Study P2P--><g class="cluster" data-entity="H. th.ng Study P2P" data-source-line="11" data-uid="ent0003" id="cluster_H. th.ng Study P2P"><rect fill="none" height="195" rx="2.5" ry="2.5" style="stroke:#181818;stroke-width:1;" width="635.5" x="128" y="45.6094"/><text fill="#000000" font-family="sans-serif" font-size="14" font-weight="bold" lengthAdjust="spacing" textLength="133.7861" x="378.8569" y="62.1426">H&#7879; th&#7889;ng Study P2P</text></g><!--entity UC24--><g class="entity" data-entity="UC24" data-source-line="12" data-uid="ent0004" id="entity_UC24"><ellipse cx="220.6949" cy="189.3726" fill="#EEF7FF" rx="76.6949" ry="25.2632" style="stroke:#2D6CDF;stroke-width:0.5;"/><text fill="#000000" font-family="sans-serif" font-size="14" lengthAdjust="spacing" textLength="35.793" x="202.7985" y="181.8852">UC24</text><text fill="#000000" font-family="sans-serif" font-size="14" lengthAdjust="spacing" textLength="116.5801" x="162.4049" y="199.4946">T&#7841;o task/nh&#7855;c nh&#7903;</text></g><!--entity UC25--><g class="entity" data-entity="UC25" data-source-line="13" data-uid="ent0005" id="entity_UC25"><ellipse cx="651.055" cy="195.7752" fill="#EEF7FF" rx="96.555" ry="25.1658" style="stroke:#2D6CDF;stroke-width:0.5;"/><text fill="#000000" font-family="sans-serif" font-size="14" lengthAdjust="spacing" textLength="35.793" x="633.1585" y="188.1281">UC25</text><text fill="#000000" font-family="sans-serif" font-size="14" lengthAdjust="spacing" textLength="148.6475" x="576.7313" y="205.7375">C&#7853;p nh&#7853;t tr&#7841;ng th&#225;i task</text></g><!--entity UC26--><g class="entity" data-entity="UC26" data-source-line="14" data-uid="ent0006" id="entity_UC26"><ellipse cx="650.8757" cy="109.502" fill="#EEF7FF" rx="63.3757" ry="25.3926" style="stroke:#2D6CDF;stroke-width:0.5;"/><text fill="#000000" font-family="sans-serif" font-size="14" lengthAdjust="spacing" textLength="35.793" x="632.9792" y="102.2251">UC26</text><text fill="#000000" font-family="sans-serif" font-size="14" lengthAdjust="spacing" textLength="94.958" x="603.3967" y="119.8345">Xem th&#244;ng b&#225;o</text></g><!--entity User--><g class="entity" data-entity="User" data-source-line="9" data-uid="ent0002" id="entity_User"><ellipse cx="43.2969" cy="166.6094" fill="#F1F1F1" rx="16" ry="16" style="stroke:#181818;stroke-width:0.5;"/><path d="M43.2969,186.6094 C47.2969,186.6094 50.2969,186.6094 54.2969,182.6094 C62.2969,182.6094 70.2969,190.6094 70.2969,198.6094 L70.2969,202.6094 C70.2969,206.6094 66.2969,210.6094 62.2969,210.6094 L24.2969,210.6094 C20.2969,210.6094 16.2969,206.6094 16.2969,202.6094 L16.2969,198.6094 C16.2969,190.6094 24.2969,182.6094 32.2969,182.6094 C36.2969,186.6094 39.2969,186.6094 43.2969,186.6094" fill="#F1F1F1" style="stroke:#181818;stroke-width:0.5;"/><text fill="#000000" font-family="sans-serif" font-size="14" lengthAdjust="spacing" textLength="74.5938" x="6" y="225.6426">Ng&#432;&#7901;i d&#249;ng</text></g><g class="entity" data-entity="GMN10" data-source-line="22" data-uid="ent0011" id="entity_GMN10"><path d="M500,256.6094 L500,264.1794 L279.29,205.9294 L500,272.1794 L500,364.7188 A0,0 0 0 0 500,364.7188 L801.8965,364.7188 A0,0 0 0 0 801.8965,364.7188 L801.8965,266.6094 L791.8965,256.6094 L500,256.6094 A0,0 0 0 0 500,256.6094" fill="#FEFFDD" style="stroke:#181818;stroke-width:0.5;"/><path d="M791.8965,256.6094 L791.8965,266.6094 L801.8965,266.6094 L791.8965,256.6094" fill="#FEFFDD" style="stroke:#181818;stroke-width:0.5;"/><text fill="#000000" font-family="sans-serif" font-size="13" lengthAdjust="spacing" textLength="84.5508" x="506" y="275.1045">Ti&#7873;n &#273;i&#7873;u ki&#7879;n:</text><text fill="#000000" font-family="sans-serif" font-size="13" lengthAdjust="spacing" textLength="163.9536" x="506" y="291.4561">- Ng&#432;&#7901;i d&#249;ng &#273;&#227; &#273;&#259;ng nh&#7853;p.</text><text fill="#000000" font-family="sans-serif" font-size="13" lengthAdjust="spacing" textLength="83.1099" x="506" y="307.8076">H&#7853;u &#273;i&#7873;u ki&#7879;n:</text><text fill="#000000" font-family="sans-serif" font-size="13" lengthAdjust="spacing" textLength="264.3862" x="506" y="324.1592">- Task &#273;&#432;&#7907;c l&#432;u DB, hi&#7875;n th&#7883; trong danh s&#225;ch.</text><text fill="#000000" font-family="sans-serif" font-size="13" lengthAdjust="spacing" textLength="66.4917" x="506" y="340.5107">R&#224;ng bu&#7897;c:</text><text fill="#000000" font-family="sans-serif" font-size="13" lengthAdjust="spacing" textLength="280.8965" x="506" y="356.8623">- D&#7919; li&#7879;u h&#7907;p l&#7879; (ti&#234;u &#273;&#7873;, h&#7841;n); g&#225;n ph&#242;ng/ng&#432;&#7901;i.</text></g><!--link User to UC24--><g class="link" data-entity-1="User" data-entity-2="UC24" data-source-line="17" data-uid="lnk7" id="link_User_UC24"><path d="M81.19,189.6094 C99.43,189.6094 116.18,189.6094 137.93,189.6094" fill="none" id="User-to-UC24" style="stroke:#181818;stroke-width:1;"/><polygon fill="#181818" points="143.93,189.6094,134.93,185.6094,138.93,189.6094,134.93,193.6094,143.93,189.6094" style="stroke:#181818;stroke-width:1;"/></g><!--reverse link UC24 to UC25--><g class="link" data-entity-1="UC24" data-entity-2="UC25" data-source-line="18" data-uid="lnk8" id="link_UC24_UC25"><path d="M314.6937,192.3961 C324.8837,192.6661 317.2,192.4294 327,192.6094 C403.39,194.0494 489.96,194.8094 554.24,195.1994" fill="none" id="UC24-backto-UC25" style="stroke:#181818;stroke-width:1;"/><polygon fill="none" points="296.7,191.9194,314.5348,198.394,314.8526,186.3983,296.7,191.9194" style="stroke:#181818;stroke-width:1;"/><text fill="#000000" font-family="sans-serif" font-size="13" lengthAdjust="spacing" textLength="53.4917" x="371.8418" y="173.1045">&#171;extend&#187;</text><text fill="#000000" font-family="sans-serif" font-size="13" lengthAdjust="spacing" textLength="101.1753" x="348" y="189.4561">(c&#7853;p nh&#7853;t ti&#7871;n &#273;&#7897;)</text></g><!--link UC24 to UC26--><g class="link" data-entity-1="UC24" data-entity-2="UC26" data-source-line="19" data-uid="lnk9" id="link_UC24_UC26"><path d="M272.21,170.7094 C289.41,164.8594 308.87,158.8394 327,154.6094 C416.87,133.6294 505.3234,122.85 570.7534,116.53" fill="none" id="UC24-to-UC26" style="stroke:#181818;stroke-width:1;stroke-dasharray:7,7;"/><polygon fill="none" points="588.67,114.7994,570.1765,110.5578,571.3303,122.5022,588.67,114.7994" style="stroke:#181818;stroke-width:1;"/><text fill="#000000" font-family="sans-serif" font-size="13" lengthAdjust="spacing" textLength="53.4917" x="372.0083" y="110.1045">&#171;extend&#187;</text><text fill="#000000" font-family="sans-serif" font-size="13" lengthAdjust="spacing" textLength="141.5083" x="328" y="126.4561">(th&#244;ng b&#225;o t&#7899;i li&#234;n quan)</text></g><!--SRC=[TL6nQXj14EttAmQbiI1t1X4hu0WLbYnS1HFBa4BD-cvzj-WqUxdRnJ5n2kF2HIgN9eJuK1SmDY5DxeeKP_mV-oUPFKbWYwJPMNRVU_FUZ9Ow4N0uwBm23yQsB1HedaytCRRbNG1Kgkyi4SSQj89CHh66K6OYq58XowSIKvxn6V10g-n0dv8MFn6vceaddoON0Sy5V680EpoOHfao60vKeZ9uiRixUZqQkH-LXI9RldQ6tS5mn3uprYX3wstqU6-hRnB2-ZT6BU0v7EOYOynvuHXHuzQUhIv1a-ChZE10c_0KzZlxhQRloaFBHPtWVv8kT0cnnjYQuC2Mjwb3bRSqYupur4J7TI4RcHLpQutPdU1xCNF0NuG_gWkrGdPTEfS1FA-_QDgieNVcUOqIR4El9pvgWM6_Fy6Du9a3QSi_20zNjhfkBuX-g4xGFskqkkla9mP0s-ghX4JMFn0-68vjnb1fiLolEbwO6KjRdRiEhXgOKhd4RUR1yrKGe9xJyN11zyPSwhCzAkOVr35DYfuTVnv0ydXlOBZp4c82N62pkYyqMqLA8SSOyhe8Of-zgs-STKDH0wSojDKTsITH0qIPfv2upMzeIcIQaPoJfjjG-mr4TO6GnlLFZ3PnwTndD1PmcTbV]--></g></svg>