<svg xmlns="http://www.w3.org/2000/svg" xmlns:xlink="http://www.w3.org/1999/xlink" contentStyleType="text/css" data-diagram-type="SEQUENCE" height="557px" preserveAspectRatio="none" style="width:1079px;height:557px;background:#FFFFFF;" version="1.1" viewBox="0 0 1079 557" width="1079px" zoomAndPan="magnify"><title>UC13 - Tr&#236;nh t&#7921; Tham gia ph&#242;ng PUBLIC</title><defs/><g><text fill="#000000" font-family="sans-serif" font-size="14" font-weight="bold" lengthAdjust="spacing" textLength="269.9102" x="402.6086" y="29.5332">UC13 - Tr&#236;nh t&#7921; Tham gia ph&#242;ng PUBLIC</text><g><title>Ng..i d.ng</title><rect fill="#000000" fill-opacity="0.00000" height="353.8672" width="8" x="41.2969" y="121.2188"/><line style="stroke:#181818;stroke-width:0.5;stroke-dasharray:5,5;" x1="45" x2="45" y1="121.2188" y2="475.0859"/></g><g><title>Flutter UI</title><rect fill="#000000" fill-opacity="0.00000" height="353.8672" width="8" x="266.2383" y="121.2188"/><line style="stroke:#181818;stroke-width:0.5;stroke-dasharray:5,5;" x1="269.4556" x2="269.4556" y1="121.2188" y2="475.0859"/></g><g><title>RoomClient</title><rect fill="#000000" fill-opacity="0.00000" height="353.8672" width="8" x="446.9556" y="121.2188"/><line style="stroke:#181818;stroke-width:0.5;stroke-dasharray:5,5;" x1="450.3867" x2="450.3867" y1="121.2188" y2="475.0859"/></g><g><title>ApiService</title><rect fill="#000000" fill-opacity="0.00000" height="353.8672" width="8" x="595.9536" y="121.2188"/><line style="stroke:#181818;stroke-width:0.5;stroke-dasharray:5,5;" x1="599.4951" x2="599.4951" y1="121.2188" y2="475.0859"/></g><g><title>RoomController</title><rect fill="#000000" fill-opacity="0.00000" height="353.8672" width="8" x="705.9453" y="121.2188"/><line style="stroke:#181818;stroke-width:0.5;stroke-dasharray:5,5;" x1="709.9282" x2="709.9282" y1="121.2188" y2="475.0859"/></g><g><title>RoomService .server.</title><rect fill="#000000" fill-opacity="0.00000" height="353.8672" width="8" x="905.5278" y="121.2188"/><line style="stroke:#181818;stroke-width:0.5;stroke-dasharray:5,5;" x1="909.459" x2="909.459" y1="121.2188" y2="475.0859"/></g><g><title>MySQL</title><rect fill="#000000" fill-opacity="0.00000" height="353.8672" width="8" x="1040.7896" y="121.2188"/><line style="stroke:#181818;stroke-width:0.5;stroke-dasharray:5,5;" x1="1044.4517" x2="1044.4517" y1="121.2188" y2="475.0859"/></g><g class="participant participant-head" data-participant="User"><text fill="#000000" font-family="sans-serif" font-size="14" lengthAdjust="spacing" textLength="74.5938" x="5" y="118.1426">Ng&#432;&#7901;i d&#249;ng</text><ellipse cx="45.2969" cy="52.1094" fill="#E2E2F0" rx="8" ry="8" style="stroke:#181818;stroke-width:0.5;"/><path d="M45.2969,60.1094 L45.2969,87.1094 M32.2969,68.1094 L58.2969,68.1094 M45.2969,87.1094 L32.2969,102.1094 M45.2969,87.1094 L58.2969,102.1094" fill="none" style="stroke:#181818;stroke-width:0.5;"/></g><g class="participant participant-tail" data-participant="User"><text fill="#000000" font-family="sans-serif" font-size="14" lengthAdjust="spacing" textLength="74.5938" x="5" y="488.6191">Ng&#432;&#7901;i d&#249;ng</text><ellipse cx="45.2969" cy="500.1953" fill="#E2E2F0" rx="8" ry="8" style="stroke:#181818;stroke-width:0.5;"/><path d="M45.2969,508.1953 L45.2969,535.1953 M32.2969,516.1953 L58.2969,516.1953 M45.2969,535.1953 L32.2969,550.1953 M45.2969,535.1953 L58.2969,550.1953" fill="none" style="stroke:#181818;stroke-width:0.5;"/></g><g class="participant participant-head" data-participant="UI"><rect fill="#E2E2F0" height="31.6094" rx="2.5" ry="2.5" style="stroke:#181818;stroke-width:0.5;" width="71.5654" x="234.4556" y="88.6094"/><text fill="#000000" font-family="sans-serif" font-size="14" lengthAdjust="spacing" textLength="57.5654" x="241.4556" y="110.1426">Flutter UI</text></g><g class="participant participant-tail" data-participant="UI"><rect fill="#E2E2F0" height="31.6094" rx="2.5" ry="2.5" style="stroke:#181818;stroke-width:0.5;" width="71.5654" x="234.4556" y="474.0859"/><text fill="#000000" font-family="sans-serif" font-size="14" lengthAdjust="spacing" textLength="57.5654" x="241.4556" y="495.6191">Flutter UI</text></g><g class="participant participant-head" data-participant="RoomCli"><rect fill="#E2E2F0" height="31.6094" rx="2.5" ry="2.5" style="stroke:#181818;stroke-width:0.5;" width="87.1377" x="407.3867" y="88.6094"/><text fill="#000000" font-family="sans-serif" font-size="14" lengthAdjust="spacing" textLength="73.1377" x="414.3867" y="110.1426">RoomClient</text></g><g class="participant participant-tail" data-participant="RoomCli"><rect fill="#E2E2F0" height="31.6094" rx="2.5" ry="2.5" style="stroke:#181818;stroke-width:0.5;" width="87.1377" x="407.3867" y="474.0859"/><text fill="#000000" font-family="sans-serif" font-size="14" lengthAdjust="spacing" textLength="73.1377" x="414.3867" y="495.6191">RoomClient</text></g><g class="participant participant-head" data-participant="Api"><rect fill="#E2E2F0" height="31.6094" rx="2.5" ry="2.5" style="stroke:#181818;stroke-width:0.5;" width="80.917" x="559.4951" y="88.6094"/><text fill="#000000" font-family="sans-serif" font-size="14" lengthAdjust="spacing" textLength="66.917" x="566.4951" y="110.1426">ApiService</text></g><g class="participant participant-tail" data-participant="Api"><rect fill="#E2E2F0" height="31.6094" rx="2.5" ry="2.5" style="stroke:#181818;stroke-width:0.5;" width="80.917" x="559.4951" y="474.0859"/><text fill="#000000" font-family="sans-serif" font-size="14" lengthAdjust="spacing" textLength="66.917" x="566.4951" y="495.6191">ApiService</text></g><g class="participant participant-head" data-participant="RoomCtrl"><rect fill="#E2E2F0" height="31.6094" rx="2.5" ry="2.5" style="stroke:#181818;stroke-width:0.5;" width="112.0342" x="653.9282" y="88.6094"/><text fill="#000000" font-family="sans-serif" font-size="14" lengthAdjust="spacing" textLength="98.0342" x="660.9282" y="110.1426">RoomController</text></g><g class="participant participant-tail" data-participant="RoomCtrl"><rect fill="#E2E2F0" height="31.6094" rx="2.5" ry="2.5" style="stroke:#181818;stroke-width:0.5;" width="112.0342" x="653.9282" y="474.0859"/><text fill="#000000" font-family="sans-serif" font-size="14" lengthAdjust="spacing" textLength="98.0342" x="660.9282" y="495.6191">RoomController</text></g><g class="participant participant-head" data-participant="RoomSvc"><rect fill="#E2E2F0" height="31.6094" rx="2.5" ry="2.5" style="stroke:#181818;stroke-width:0.5;" width="150.1377" x="834.459" y="88.6094"/><text fill="#000000" font-family="sans-serif" font-size="14" lengthAdjust="spacing" textLength="136.1377" x="841.459" y="110.1426">RoomService (server)</text></g><g class="participant participant-tail" data-participant="RoomSvc"><rect fill="#E2E2F0" height="31.6094" rx="2.5" ry="2.5" style="stroke:#181818;stroke-width:0.5;" width="150.1377" x="834.459" y="474.0859"/><text fill="#000000" font-family="sans-serif" font-size="14" lengthAdjust="spacing" textLength="136.1377" x="841.459" y="495.6191">RoomService (server)</text></g><g class="participant participant-head" data-participant="DB"><text fill="#000000" font-family="sans-serif" font-size="14" lengthAdjust="spacing" textLength="46.6758" x="1018.4517" y="118.1426">MySQL</text><path d="M1026.7896,67.6094 C1026.7896,57.6094 1044.7896,57.6094 1044.7896,57.6094 C1044.7896,57.6094 1062.7896,57.6094 1062.7896,67.6094 L1062.7896,93.6094 C1062.7896,103.6094 1044.7896,103.6094 1044.7896,103.6094 C1044.7896,103.6094 1026.7896,103.6094 1026.7896,93.6094 L1026.7896,67.6094" fill="#E2E2F0" style="stroke:#181818;stroke-width:0.5;"/><path d="M1026.7896,67.6094 C1026.7896,77.6094 1044.7896,77.6094 1044.7896,77.6094 C1044.7896,77.6094 1062.7896,77.6094 1062.7896,67.6094" fill="none" style="stroke:#181818;stroke-width:0.5;"/></g><g class="participant participant-tail" data-participant="DB"><text fill="#000000" font-family="sans-serif" font-size="14" lengthAdjust="spacing" textLength="46.6758" x="1018.4517" y="488.6191">MySQL</text><path d="M1026.7896,501.6953 C1026.7896,491.6953 1044.7896,491.6953 1044.7896,491.6953 C1044.7896,491.6953 1062.7896,491.6953 1062.7896,501.6953 L1062.7896,527.6953 C1062.7896,537.6953 1044.7896,537.6953 1044.7896,537.6953 C1044.7896,537.6953 1026.7896,537.6953 1026.7896,527.6953 L1026.7896,501.6953" fill="#E2E2F0" style="stroke:#181818;stroke-width:0.5;"/><path d="M1026.7896,501.6953 C1026.7896,511.6953 1044.7896,511.6953 1044.7896,511.6953 C1044.7896,511.6953 1062.7896,511.6953 1062.7896,501.6953" fill="none" style="stroke:#181818;stroke-width:0.5;"/></g><g class="message" data-participant-1="User" data-participant-2="UI"><polygon fill="#181818" points="258.2383,149.5703,268.2383,153.5703,258.2383,157.5703,262.2383,153.5703" style="stroke:#181818;stroke-width:1;"/><line style="stroke:#181818;stroke-width:1;" x1="45.2969" x2="264.2383" y1="153.5703" y2="153.5703"/><text fill="#000000" font-family="sans-serif" font-size="13" lengthAdjust="spacing" textLength="200.9414" x="52.2969" y="148.7139">Ch&#7885;n ph&#242;ng PUBLIC t&#7915; danh s&#225;ch</text></g><g class="message" data-participant-1="UI" data-participant-2="RoomCli"><polygon fill="#181818" points="438.9556,179.9219,448.9556,183.9219,438.9556,187.9219,442.9556,183.9219" style="stroke:#181818;stroke-width:1;"/><line style="stroke:#181818;stroke-width:1;" x1="270.2383" x2="444.9556" y1="183.9219" y2="183.9219"/><text fill="#000000" font-family="sans-serif" font-size="13" lengthAdjust="spacing" textLength="104.7617" x="277.2383" y="179.0654">joinPublic(roomId)</text></g><g class="message" data-participant-1="RoomCli" data-participant-2="Api"><polygon fill="#181818" points="587.9536,210.2734,597.9536,214.2734,587.9536,218.2734,591.9536,214.2734" style="stroke:#181818;stroke-width:1;"/><line style="stroke:#181818;stroke-width:1;" x1="450.9556" x2="593.9536" y1="214.2734" y2="214.2734"/><text fill="#000000" font-family="sans-serif" font-size="13" lengthAdjust="spacing" textLength="124.998" x="457.9556" y="209.417">POST /rooms/{id}/join</text></g><g class="message" data-participant-1="Api" data-participant-2="RoomCtrl"><polygon fill="#181818" points="697.9453,240.625,707.9453,244.625,697.9453,248.625,701.9453,244.625" style="stroke:#181818;stroke-width:1;"/><line style="stroke:#181818;stroke-width:1;" x1="599.9536" x2="703.9453" y1="244.625" y2="244.625"/><text fill="#000000" font-family="sans-serif" font-size="13" lengthAdjust="spacing" textLength="85.9917" x="606.9536" y="239.7686">/rooms/{id}/join</text></g><g class="message" data-participant-1="RoomCtrl" data-participant-2="RoomSvc"><polygon fill="#181818" points="897.5278,270.9766,907.5278,274.9766,897.5278,278.9766,901.5278,274.9766" style="stroke:#181818;stroke-width:1;"/><line style="stroke:#181818;stroke-width:1;" x1="709.9453" x2="903.5278" y1="274.9766" y2="274.9766"/><text fill="#000000" font-family="sans-serif" font-size="13" lengthAdjust="spacing" textLength="175.5825" x="716.9453" y="270.1201">addParticipant(roomId, userId)</text></g><g class="message" data-participant-1="RoomSvc" data-participant-2="DB"><polygon fill="#181818" points="1032.7896,301.3281,1042.7896,305.3281,1032.7896,309.3281,1036.7896,305.3281" style="stroke:#181818;stroke-width:1;"/><line style="stroke:#181818;stroke-width:1;" x1="909.5278" x2="1038.7896" y1="305.3281" y2="305.3281"/><text fill="#000000" font-family="sans-serif" font-size="13" lengthAdjust="spacing" textLength="111.2617" x="916.5278" y="300.4717">INSERT participant</text></g><g class="message" data-participant-1="DB" data-participant-2="RoomSvc"><polygon fill="#181818" points="920.5278,331.6797,910.5278,335.6797,920.5278,339.6797,916.5278,335.6797" style="stroke:#181818;stroke-width:1;"/><line style="stroke:#181818;stroke-width:1;stroke-dasharray:2,2;" x1="914.5278" x2="1043.7896" y1="335.6797" y2="335.6797"/><text fill="#000000" font-family="sans-serif" font-size="13" lengthAdjust="spacing" textLength="13.73" x="926.5278" y="330.8232">ok</text></g><g class="message" data-participant-1="RoomSvc" data-participant-2="RoomCtrl"><polygon fill="#181818" points="720.9453,362.0313,710.9453,366.0313,720.9453,370.0313,716.9453,366.0313" style="stroke:#181818;stroke-width:1;"/><line style="stroke:#181818;stroke-width:1;stroke-dasharray:2,2;" x1="714.9453" x2="908.5278" y1="366.0313" y2="366.0313"/><text fill="#000000" font-family="sans-serif" font-size="13" lengthAdjust="spacing" textLength="99.7407" x="726.9453" y="361.1748">participant added</text></g><g class="message" data-participant-1="RoomCtrl" data-participant-2="Api"><polygon fill="#181818" points="610.9536,392.3828,600.9536,396.3828,610.9536,400.3828,606.9536,396.3828" style="stroke:#181818;stroke-width:1;"/><line style="stroke:#181818;stroke-width:1;stroke-dasharray:2,2;" x1="604.9536" x2="708.9453" y1="396.3828" y2="396.3828"/><text fill="#000000" font-family="sans-serif" font-size="13" lengthAdjust="spacing" textLength="44.0845" x="616.9536" y="391.5264">200 OK</text></g><g class="message" data-participant-1="Api" data-participant-2="RoomCli"><polygon fill="#181818" points="461.9556,422.7344,451.9556,426.7344,461.9556,430.7344,457.9556,426.7344" style="stroke:#181818;stroke-width:1;"/><line style="stroke:#181818;stroke-width:1;stroke-dasharray:2,2;" x1="455.9556" x2="598.9536" y1="426.7344" y2="426.7344"/><text fill="#000000" font-family="sans-serif" font-size="13" lengthAdjust="spacing" textLength="18.7827" x="467.9556" y="421.8779">OK</text></g><g class="message" data-participant-1="RoomCli" data-participant-2="UI"><polygon fill="#181818" points="281.2383,453.0859,271.2383,457.0859,281.2383,461.0859,277.2383,457.0859" style="stroke:#181818;stroke-width:1;"/><line style="stroke:#181818;stroke-width:1;" x1="275.2383" x2="449.9556" y1="457.0859" y2="457.0859"/><text fill="#000000" font-family="sans-serif" font-size="13" lengthAdjust="spacing" textLength="156.7173" x="287.2383" y="452.2295">&#272;i&#7873;u h&#432;&#7899;ng v&#224;o ph&#242;ng/call</text></g><!--SRC=[RPAzJiCm58LtFyLLfrQYQe4j0n9fGOeeRI3D0xYnrHXSEtBSIWWny018x0W9PXY03MKCuZtw9jXjqYOge-_vxiyvicQQKmXx-uVGXh7AtqKCUfbzmZZ6CvWo34cSVuaf-A4xy7e8HregQ0odln_Bx9a1oR_5j04uXJ2b2YLOQHQn10iDZLC-rveg2BqruDNbIobdFSweq2kvUDQPuuG5L2rOH5UCUVupGmgj9ETKRUTenNV1OX8qpQKBgbeRF5X4Y62D9pYbq3Y_2Iu6Awtl8cHjGVl8NEz0Brvc3wAUY4th3GWskQNvQnIZqBDuuSQ1Ayc4Fvzm5ZMLgNcaXGhDOiQG0_ue64F7gcddbf6xZkr1HjeCCdQSNQAKIipOS00Juc-D5pltO6vibBiDPrlwhWFUC3Yv74CbAjHteLqTAA-tJRLxglcQhPHK3Ygj7NIxC3fRUwccOcgL56osFuzicTtF8ROVwyd4kyXVP15r9yAS_m40]--></g></svg>