<svg xmlns="http://www.w3.org/2000/svg" xmlns:xlink="http://www.w3.org/1999/xlink" contentStyleType="text/css" data-diagram-type="SEQUENCE" height="774px" preserveAspectRatio="none" style="width:1143px;height:774px;background:#FFFFFF;" version="1.1" viewBox="0 0 1143 774" width="1143px" zoomAndPan="magnify"><title>UC17 - Tr&#236;nh t&#7921; Tham gia cu&#7897;c g&#7885;i video</title><defs/><g><text fill="#000000" font-family="sans-serif" font-size="14" font-weight="bold" lengthAdjust="spacing" textLength="269.165" x="436.5061" y="29.5332">UC17 - Tr&#236;nh t&#7921; Tham gia cu&#7897;c g&#7885;i video</text><rect fill="none" height="164.7578" style="stroke:#000000;stroke-width:1.5;" width="506.8398" x="307.4922" y="424.3828"/><g><title>Ng..i d.ng .A.</title><rect fill="#000000" fill-opacity="0.00000" height="571.625" width="8" x="52.5728" y="121.2188"/><line style="stroke:#181818;stroke-width:0.5;stroke-dasharray:5,5;" x1="56" x2="56" y1="121.2188" y2="692.8438"/></g><g><title>Flutter UI .A.</title><rect fill="#000000" fill-opacity="0.00000" height="571.625" width="8" x="161.2041" y="121.2188"/><line style="stroke:#181818;stroke-width:0.5;stroke-dasharray:5,5;" x1="165.1455" x2="165.1455" y1="121.2188" y2="692.8438"/></g><g><title>WebSocketClient .A.</title><rect fill="#000000" fill-opacity="0.00000" height="571.625" width="8" x="385.4575" y="121.2188"/><line style="stroke:#181818;stroke-width:0.5;stroke-dasharray:5,5;" x1="388.4922" x2="388.4922" y1="121.2188" y2="692.8438"/></g><g><title>SignalingEndpoint .server.</title><rect fill="#000000" fill-opacity="0.00000" height="571.625" width="8" x="556.9121" y="121.2188"/><line style="stroke:#181818;stroke-width:0.5;stroke-dasharray:5,5;" x1="560.4229" x2="560.4229" y1="121.2188" y2="692.8438"/></g><g><title>WebSocketClient .B.</title><rect fill="#000000" fill-opacity="0.00000" height="571.625" width="8" x="728.3667" y="121.2188"/><line style="stroke:#181818;stroke-width:0.5;stroke-dasharray:5,5;" x1="731.4014" x2="731.4014" y1="121.2188" y2="692.8438"/></g><g><title>Flutter UI .B.</title><rect fill="#000000" fill-opacity="0.00000" height="571.625" width="8" x="914.9238" y="121.2188"/><line style="stroke:#181818;stroke-width:0.5;stroke-dasharray:5,5;" x1="918.8652" x2="918.8652" y1="121.2188" y2="692.8438"/></g><g class="participant participant-head" data-participant="UserA"><text fill="#000000" font-family="sans-serif" font-size="14" lengthAdjust="spacing" textLength="97.1455" x="5" y="118.1426">Ng&#432;&#7901;i d&#249;ng (A)</text><ellipse cx="56.5728" cy="52.1094" fill="#E2E2F0" rx="8" ry="8" style="stroke:#181818;stroke-width:0.5;"/><path d="M56.5728,60.1094 L56.5728,87.1094 M43.5728,68.1094 L69.5728,68.1094 M56.5728,87.1094 L43.5728,102.1094 M56.5728,87.1094 L69.5728,102.1094" fill="none" style="stroke:#181818;stroke-width:0.5;"/></g><g class="participant participant-tail" data-participant="UserA"><text fill="#000000" font-family="sans-serif" font-size="14" lengthAdjust="spacing" textLength="97.1455" x="5" y="706.377">Ng&#432;&#7901;i d&#249;ng (A)</text><ellipse cx="56.5728" cy="717.9531" fill="#E2E2F0" rx="8" ry="8" style="stroke:#181818;stroke-width:0.5;"/><path d="M56.5728,725.9531 L56.5728,752.9531 M43.5728,733.9531 L69.5728,733.9531 M56.5728,752.9531 L43.5728,767.9531 M56.5728,752.9531 L69.5728,767.9531" fill="none" style="stroke:#181818;stroke-width:0.5;"/></g><g class="participant participant-head" data-participant="UIA"><rect fill="#E2E2F0" height="31.6094" rx="2.5" ry="2.5" style="stroke:#181818;stroke-width:0.5;" width="94.1172" x="118.1455" y="88.6094"/><text fill="#000000" font-family="sans-serif" font-size="14" lengthAdjust="spacing" textLength="80.1172" x="125.1455" y="110.1426">Flutter UI (A)</text></g><g class="participant participant-tail" data-participant="UIA"><rect fill="#E2E2F0" height="31.6094" rx="2.5" ry="2.5" style="stroke:#181818;stroke-width:0.5;" width="94.1172" x="118.1455" y="691.8438"/><text fill="#000000" font-family="sans-serif" font-size="14" lengthAdjust="spacing" textLength="80.1172" x="125.1455" y="713.377">Flutter UI (A)</text></g><g class="participant participant-head" data-participant="WSA"><rect fill="#E2E2F0" height="31.6094" rx="2.5" ry="2.5" style="stroke:#181818;stroke-width:0.5;" width="143.9307" x="317.4922" y="88.6094"/><text fill="#000000" font-family="sans-serif" font-size="14" lengthAdjust="spacing" textLength="129.9307" x="324.4922" y="110.1426">WebSocketClient (A)</text></g><g class="participant participant-tail" data-participant="WSA"><rect fill="#E2E2F0" height="31.6094" rx="2.5" ry="2.5" style="stroke:#181818;stroke-width:0.5;" width="143.9307" x="317.4922" y="691.8438"/><text fill="#000000" font-family="sans-serif" font-size="14" lengthAdjust="spacing" textLength="129.9307" x="324.4922" y="713.377">WebSocketClient (A)</text></g><g class="participant participant-head" data-participant="Signal"><rect fill="#E2E2F0" height="31.6094" rx="2.5" ry="2.5" style="stroke:#181818;stroke-width:0.5;" width="178.9785" x="471.4229" y="88.6094"/><text fill="#000000" font-family="sans-serif" font-size="14" lengthAdjust="spacing" textLength="164.9785" x="478.4229" y="110.1426">SignalingEndpoint (server)</text></g><g class="participant participant-tail" data-participant="Signal"><rect fill="#E2E2F0" height="31.6094" rx="2.5" ry="2.5" style="stroke:#181818;stroke-width:0.5;" width="178.9785" x="471.4229" y="691.8438"/><text fill="#000000" font-family="sans-serif" font-size="14" lengthAdjust="spacing" textLength="164.9785" x="478.4229" y="713.377">SignalingEndpoint (server)</text></g><g class="participant participant-head" data-participant="WSB"><rect fill="#E2E2F0" height="31.6094" rx="2.5" ry="2.5" style="stroke:#181818;stroke-width:0.5;" width="143.9307" x="660.4014" y="88.6094"/><text fill="#000000" font-family="sans-serif" font-size="14" lengthAdjust="spacing" textLength="129.9307" x="667.4014" y="110.1426">WebSocketClient (B)</text></g><g class="participant participant-tail" data-participant="WSB"><rect fill="#E2E2F0" height="31.6094" rx="2.5" ry="2.5" style="stroke:#181818;stroke-width:0.5;" width="143.9307" x="660.4014" y="691.8438"/><text fill="#000000" font-family="sans-serif" font-size="14" lengthAdjust="spacing" textLength="129.9307" x="667.4014" y="713.377">WebSocketClient (B)</text></g><g class="participant participant-head" data-participant="UIB"><rect fill="#E2E2F0" height="31.6094" rx="2.5" ry="2.5" style="stroke:#181818;stroke-width:0.5;" width="94.1172" x="871.8652" y="88.6094"/><text fill="#000000" font-family="sans-serif" font-size="14" lengthAdjust="spacing" textLength="80.1172" x="878.8652" y="110.1426">Flutter UI (B)</text></g><g class="participant participant-tail" data-participant="UIB"><rect fill="#E2E2F0" height="31.6094" rx="2.5" ry="2.5" style="stroke:#181818;stroke-width:0.5;" width="94.1172" x="871.8652" y="691.8438"/><text fill="#000000" font-family="sans-serif" font-size="14" lengthAdjust="spacing" textLength="80.1172" x="878.8652" y="713.377">Flutter UI (B)</text></g><g class="message" data-participant-1="UserA" data-participant-2="UIA"><polygon fill="#181818" points="153.2041,149.5703,163.2041,153.5703,153.2041,157.5703,157.2041,153.5703" style="stroke:#181818;stroke-width:1;"/><line style="stroke:#181818;stroke-width:1;" x1="56.5728" x2="159.2041" y1="153.5703" y2="153.5703"/><text fill="#000000" font-family="sans-serif" font-size="13" lengthAdjust="spacing" textLength="49.8545" x="63.5728" y="148.7139">Join Call</text></g><g class="message" data-participant-1="UIA" data-participant-2="WSA"><polygon fill="#181818" points="377.4575,179.9219,387.4575,183.9219,377.4575,187.9219,381.4575,183.9219" style="stroke:#181818;stroke-width:1;"/><line style="stroke:#181818;stroke-width:1;" x1="165.2041" x2="383.4575" y1="183.9219" y2="183.9219"/><text fill="#000000" font-family="sans-serif" font-size="13" lengthAdjust="spacing" textLength="73.6836" x="172.2041" y="179.0654">createOffer()</text></g><g class="message" data-participant-1="WSA" data-participant-2="Signal"><polygon fill="#181818" points="548.9121,210.2734,558.9121,214.2734,548.9121,218.2734,552.9121,214.2734" style="stroke:#181818;stroke-width:1;"/><line style="stroke:#181818;stroke-width:1;" x1="389.4575" x2="554.9121" y1="214.2734" y2="214.2734"/><text fill="#000000" font-family="sans-serif" font-size="13" lengthAdjust="spacing" textLength="57.8145" x="396.4575" y="209.417">send offer</text></g><g class="message" data-participant-1="Signal" data-participant-2="WSB"><polygon fill="#181818" points="720.3667,240.625,730.3667,244.625,720.3667,248.625,724.3667,244.625" style="stroke:#181818;stroke-width:1;"/><line style="stroke:#181818;stroke-width:1;" x1="560.9121" x2="726.3667" y1="244.625" y2="244.625"/><text fill="#000000" font-family="sans-serif" font-size="13" lengthAdjust="spacing" textLength="72.9727" x="567.9121" y="239.7686">forward offer</text></g><g class="message" data-participant-1="WSB" data-participant-2="UIB"><polygon fill="#181818" points="906.9238,270.9766,916.9238,274.9766,906.9238,278.9766,910.9238,274.9766" style="stroke:#181818;stroke-width:1;"/><line style="stroke:#181818;stroke-width:1;" x1="732.3667" x2="912.9238" y1="274.9766" y2="274.9766"/><text fill="#000000" font-family="sans-serif" font-size="13" lengthAdjust="spacing" textLength="162.5571" x="739.3667" y="270.1201">setRemoteDescription(offer)</text></g><g class="message" data-participant-1="WSB" data-participant-2="WSB"><line style="stroke:#181818;stroke-width:1;" x1="732.3667" x2="774.3667" y1="305.3281" y2="305.3281"/><line style="stroke:#181818;stroke-width:1;" x1="774.3667" x2="774.3667" y1="305.3281" y2="318.3281"/><line style="stroke:#181818;stroke-width:1;" x1="733.3667" x2="774.3667" y1="318.3281" y2="318.3281"/><polygon fill="#181818" points="743.3667,314.3281,733.3667,318.3281,743.3667,322.3281,739.3667,318.3281" style="stroke:#181818;stroke-width:1;"/><text fill="#000000" font-family="sans-serif" font-size="13" lengthAdjust="spacing" textLength="88.1372" x="739.3667" y="300.4717">createAnswer()</text></g><g class="message" data-participant-1="WSB" data-participant-2="Signal"><polygon fill="#181818" points="571.9121,344.6797,561.9121,348.6797,571.9121,352.6797,567.9121,348.6797" style="stroke:#181818;stroke-width:1;"/><line style="stroke:#181818;stroke-width:1;" x1="565.9121" x2="731.3667" y1="348.6797" y2="348.6797"/><text fill="#000000" font-family="sans-serif" font-size="13" lengthAdjust="spacing" textLength="73.709" x="577.9121" y="343.8232">send answer</text></g><g class="message" data-participant-1="Signal" data-participant-2="WSA"><polygon fill="#181818" points="400.4575,375.0313,390.4575,379.0313,400.4575,383.0313,396.4575,379.0313" style="stroke:#181818;stroke-width:1;"/><line style="stroke:#181818;stroke-width:1;" x1="394.4575" x2="559.9121" y1="379.0313" y2="379.0313"/><text fill="#000000" font-family="sans-serif" font-size="13" lengthAdjust="spacing" textLength="88.8672" x="406.4575" y="374.1748">forward answer</text></g><g class="message" data-participant-1="WSA" data-participant-2="UIA"><polygon fill="#181818" points="176.2041,405.3828,166.2041,409.3828,176.2041,413.3828,172.2041,409.3828" style="stroke:#181818;stroke-width:1;"/><line style="stroke:#181818;stroke-width:1;" x1="170.2041" x2="388.4575" y1="409.3828" y2="409.3828"/><text fill="#000000" font-family="sans-serif" font-size="13" lengthAdjust="spacing" textLength="178.4517" x="182.2041" y="404.5264">setRemoteDescription(answer)</text></g><path d="M307.4922,424.3828 L372.7222,424.3828 L372.7222,432.7344 L362.7222,442.7344 L307.4922,442.7344 L307.4922,424.3828" fill="#EEEEEE" style="stroke:#000000;stroke-width:1.5;"/><rect fill="none" height="164.7578" style="stroke:#000000;stroke-width:1.5;" width="506.8398" x="307.4922" y="424.3828"/><text fill="#000000" font-family="sans-serif" font-size="13" font-weight="bold" lengthAdjust="spacing" textLength="20.23" x="322.4922" y="438.8779">par</text><text fill="#000000" font-family="sans-serif" font-size="11" font-weight="bold" lengthAdjust="spacing" textLength="79.4653" x="387.7222" y="437.8018">[ICE exchange]</text><g class="message" data-participant-1="WSA" data-participant-2="Signal"><polygon fill="#181818" points="548.9121,461.0859,558.9121,465.0859,548.9121,469.0859,552.9121,465.0859" style="stroke:#181818;stroke-width:1;"/><line style="stroke:#181818;stroke-width:1;" x1="389.4575" x2="554.9121" y1="465.0859" y2="465.0859"/><text fill="#000000" font-family="sans-serif" font-size="13" lengthAdjust="spacing" textLength="81.6626" x="396.4575" y="460.2295">ICE candidate</text></g><g class="message" data-participant-1="Signal" data-participant-2="WSB"><polygon fill="#181818" points="720.3667,491.4375,730.3667,495.4375,720.3667,499.4375,724.3667,495.4375" style="stroke:#181818;stroke-width:1;"/><line style="stroke:#181818;stroke-width:1;" x1="560.9121" x2="726.3667" y1="495.4375" y2="495.4375"/><text fill="#000000" font-family="sans-serif" font-size="13" lengthAdjust="spacing" textLength="68.6309" x="567.9121" y="490.5811">forward ICE</text></g><g class="message" data-participant-1="WSB" data-participant-2="Signal"><polygon fill="#181818" points="571.9121,546.7891,561.9121,550.7891,571.9121,554.7891,567.9121,550.7891" style="stroke:#181818;stroke-width:1;"/><line style="stroke:#181818;stroke-width:1;" x1="565.9121" x2="731.3667" y1="550.7891" y2="550.7891"/><text fill="#000000" font-family="sans-serif" font-size="13" lengthAdjust="spacing" textLength="81.6626" x="577.9121" y="545.9326">ICE candidate</text></g><g class="message" data-participant-1="Signal" data-participant-2="WSA"><polygon fill="#181818" points="400.4575,577.1406,390.4575,581.1406,400.4575,585.1406,396.4575,581.1406" style="stroke:#181818;stroke-width:1;"/><line style="stroke:#181818;stroke-width:1;" x1="394.4575" x2="559.9121" y1="581.1406" y2="581.1406"/><text fill="#000000" font-family="sans-serif" font-size="13" lengthAdjust="spacing" textLength="68.6309" x="406.4575" y="576.2842">forward ICE</text></g><g class="message" data-participant-1="UIA" data-participant-2="UIA"><line style="stroke:#181818;stroke-width:1;" x1="165.2041" x2="207.2041" y1="618.4922" y2="618.4922"/><line style="stroke:#181818;stroke-width:1;" x1="207.2041" x2="207.2041" y1="618.4922" y2="631.4922"/><line style="stroke:#181818;stroke-width:1;" x1="166.2041" x2="207.2041" y1="631.4922" y2="631.4922"/><polygon fill="#181818" points="176.2041,627.4922,166.2041,631.4922,176.2041,635.4922,172.2041,631.4922" style="stroke:#181818;stroke-width:1;"/><text fill="#000000" font-family="sans-serif" font-size="13" lengthAdjust="spacing" textLength="210.2534" x="172.2041" y="613.6357">Start rendering remote/local streams</text></g><g class="message" data-participant-1="UIB" data-participant-2="UIB"><line style="stroke:#181818;stroke-width:1;" x1="918.9238" x2="960.9238" y1="661.8438" y2="661.8438"/><line style="stroke:#181818;stroke-width:1;" x1="960.9238" x2="960.9238" y1="661.8438" y2="674.8438"/><line style="stroke:#181818;stroke-width:1;" x1="919.9238" x2="960.9238" y1="674.8438" y2="674.8438"/><polygon fill="#181818" points="929.9238,670.8438,919.9238,674.8438,929.9238,678.8438,925.9238,674.8438" style="stroke:#181818;stroke-width:1;"/><text fill="#000000" font-family="sans-serif" font-size="13" lengthAdjust="spacing" textLength="210.2534" x="925.9238" y="656.9873">Start rendering remote/local streams</text></g><!--SRC=[ZL8nJiCm5DrzYgzEpL0X9gGCI4aeKXb08gqw6-StjKZjo75RXbw10p1m0mOOKKOaxf6Ry1qtgbgew1R_zzv_xzcnqXO8a-Jy0WOmDbzlQWwsgJzWFESBo2K7iMpg5m5vKpzBMCaCDUF2QWEzs_pxlQbV9MHVdog7VXJqW5SmgT14hEJ6IY5BhYpqhekbjMXWCjgnHWUSAJwaMZoYJGg9DEY8q_I0cCfSyKAgVAYoKaj79SSL6i_ty3-xusvtV3net0MD6MixmU3InGxXXbmXuKN1wEYcb344OP1Rl9lDqFG3HYE7-3GXLAWoq0vZVkHbSGWpRTRST22Dl4tiDFOU5zhY5LR2oD9AhVejBUXuxGPl7AbglNMEVpdp5jopZdRMMtGRkQtufxVd1SpT6OoI8U2Jc7EL8mCuwEjGmLKcCuf6y97IH6ERpQRLnwVgetqzzMFTGxJPKqjF2eRcQEWteIzNvApGWZPKbcvhKP5WTz6d27u0]--></g></svg>